<svg xmlns="http://www.w3.org/2000/svg" width="192" height="192" viewBox="0 0 192 192">
  <rect width="192" height="192" rx="32" fill="#2563eb"/>
  <g transform="translate(48, 48)" fill="none" stroke="white" stroke-width="6" stroke-linecap="round" stroke-linejoin="round">
    <path d="M12 2L2 7l10 5 10-5-10-5z"/>
    <path d="M2 17l10 5 10-5"/>
    <path d="M2 12l10 5 10-5"/>
    <circle cx="48" cy="48" r="20"/>
    <path d="M40 48h16M48 40v16"/>
  </g>
  <g transform="translate(56, 56)" fill="none" stroke="white" stroke-width="8" stroke-linecap="round" stroke-linejoin="round">
    <path d="M14.7 6.3a1 1 0 0 0 0 1.4l1.6 1.6a1 1 0 0 0 1.4 0l3.77-3.77a6 6 0 0 1-7.94 7.94l-6.91 6.91a2.12 2.12 0 0 1-3-3l6.91-6.91a6 6 0 0 1 7.94-7.94l-3.76 3.76z"/>
  </g>
</svg>
